<svg id="Layer_1" data-name="Layer 1" xmlns="http://www.w3.org/2000/svg" viewBox="0 0 154.34 211.79">
  <defs>
    <style>
      .cls-1 {
        fill: #1057a2;
      }

      .cls-2 {
        fill: #aaaeb8;
      }

.text-flicker-in-glow {
	-webkit-animation: text-flicker-in-glow 4s linear both;
	        animation: text-flicker-in-glow 4s linear both;
}

.shadow-pop-tr {
	-webkit-animation: shadow-pop-tr 2s cubic-bezier(0.470, 0.000, 0.745, 0.715) reverse backwards;
	        animation: shadow-pop-tr 2s cubic-bezier(0.470, 0.000, 0.745, 0.715) reverse backwards;
}

.scale-out-center {
	-webkit-animation: scale-out-center 0.5s cubic-bezier(0.550, 0.085, 0.680, 0.530) 4s both;
	        animation: scale-out-center 0.5s cubic-bezier(0.550, 0.085, 0.680, 0.530) 4s both;
}

/* ----------------------------------------------
 * Generated by Animista on 2018-11-14 15:9:50
 * w: http://animista.net, t: @cssanimista
 * ---------------------------------------------- */

/**
 * ----------------------------------------
 * animation scale-out-center
 * ----------------------------------------
 */
@-webkit-keyframes scale-out-center {
  0% {
    -webkit-transform: scale(1);
            transform: scale(1);
    opacity: 1;
  }
  100% {
    -webkit-transform: scale(0);
            transform: scale(0);
    opacity: 1;
  }
}
@keyframes scale-out-center {
  0% {
    -webkit-transform: scale(1);
            transform: scale(1);
    opacity: 1;
  }
  100% {
    -webkit-transform: scale(0);
            transform: scale(0);
    opacity: 1;
  }
}


 /* ----------------------------------------------
 * Generated by Animista on 2018-11-14 14:56:27
 * w: http://animista.net, t: @cssanimista
 * ---------------------------------------------- */

/* ----------------------------------------------
 * Generated by Animista on 2018-11-14 14:58:22
 * w: http://animista.net, t: @cssanimista
 * ---------------------------------------------- */

/**
 * ----------------------------------------
 * animation text-flicker-in-glow
 * ----------------------------------------
 */
@-webkit-keyframes text-flicker-in-glow {
  0% {
    opacity: 0;
  }
  10% {
    opacity: 0;
    text-shadow: none;
  }
  10.1% {
    opacity: 1;
    text-shadow: none;
  }
  10.2% {
    opacity: 0;
    text-shadow: none;
  }
  20% {
    opacity: 0;
    text-shadow: none;
  }
  20.1% {
    opacity: 1;
    text-shadow: 0 0 30px rgba(255, 255, 255, 0.25);
  }
  20.6% {
    opacity: 0;
    text-shadow: none;
  }
  30% {
    opacity: 0;
    text-shadow: none;
  }
  30.1% {
    opacity: 1;
    text-shadow: 0 0 30px rgba(255, 255, 255, 0.45), 0 0 60px rgba(255, 255, 255, 0.25);
  }
  30.5% {
    opacity: 1;
    text-shadow: 0 0 30px rgba(255, 255, 255, 0.45), 0 0 60px rgba(255, 255, 255, 0.25);
  }
  30.6% {
    opacity: 0;
    text-shadow: none;
  }
  45% {
    opacity: 0;
    text-shadow: none;
  }
  45.1% {
    opacity: 1;
    text-shadow: 0 0 30px rgba(255, 255, 255, 0.45), 0 0 60px rgba(255, 255, 255, 0.25);
  }
  50% {
    opacity: 1;
    text-shadow: 0 0 30px rgba(255, 255, 255, 0.45), 0 0 60px rgba(255, 255, 255, 0.25);
  }
  55% {
    opacity: 1;
    text-shadow: 0 0 30px rgba(255, 255, 255, 0.45), 0 0 60px rgba(255, 255, 255, 0.25);
  }
  55.1% {
    opacity: 0;
    text-shadow: none;
  }
  57% {
    opacity: 0;
    text-shadow: none;
  }
  57.1% {
    opacity: 1;
    text-shadow: 0 0 30px rgba(255, 255, 255, 0.55), 0 0 60px rgba(255, 255, 255, 0.35);
  }
  60% {
    opacity: 1;
    text-shadow: 0 0 30px rgba(255, 255, 255, 0.55), 0 0 60px rgba(255, 255, 255, 0.35);
  }
  60.1% {
    opacity: 0;
    text-shadow: none;
  }
  65% {
    opacity: 0;
    text-shadow: none;
  }
  65.1% {
    opacity: 1;
    text-shadow: 0 0 30px rgba(255, 255, 255, 0.55), 0 0 60px rgba(255, 255, 255, 0.35), 0 0 100px rgba(255, 255, 255, 0.1);
  }
  75% {
    opacity: 1;
    text-shadow: 0 0 30px rgba(255, 255, 255, 0.55), 0 0 60px rgba(255, 255, 255, 0.35), 0 0 100px rgba(255, 255, 255, 0.1);
  }
  75.1% {
    opacity: 0;
    text-shadow: none;
  }
  77% {
    opacity: 0;
    text-shadow: none;
  }
  77.1% {
    opacity: 1;
    text-shadow: 0 0 30px rgba(255, 255, 255, 0.55), 0 0 60px rgba(255, 255, 255, 0.4), 0 0 110px rgba(255, 255, 255, 0.2), 0 0 100px rgba(255, 255, 255, 0.1);
  }
  85% {
    opacity: 1;
    text-shadow: 0 0 30px rgba(255, 255, 255, 0.55), 0 0 60px rgba(255, 255, 255, 0.4), 0 0 110px rgba(255, 255, 255, 0.2), 0 0 100px rgba(255, 255, 255, 0.1);
  }
  85.1% {
    opacity: 0;
    text-shadow: none;
  }
  86% {
    opacity: 0;
    text-shadow: none;
  }
  86.1% {
    opacity: 1;
    text-shadow: 0 0 30px rgba(255, 255, 255, 0.6), 0 0 60px rgba(255, 255, 255, 0.45), 0 0 110px rgba(255, 255, 255, 0.25), 0 0 100px rgba(255, 255, 255, 0.1);
  }
  100% {
    opacity: 1;
    text-shadow: 0 0 30px rgba(255, 255, 255, 0.6), 0 0 60px rgba(255, 255, 255, 0.45), 0 0 110px rgba(255, 255, 255, 0.25), 0 0 100px rgba(255, 255, 255, 0.1);
  }
}
@keyframes text-flicker-in-glow {
  0% {
    opacity: 0;
  }
  10% {
    opacity: 0;
    text-shadow: none;
  }
  10.1% {
    opacity: 1;
    text-shadow: none;
  }
  10.2% {
    opacity: 0;
    text-shadow: none;
  }
  20% {
    opacity: 0;
    text-shadow: none;
  }
  20.1% {
    opacity: 1;
    text-shadow: 0 0 30px rgba(255, 255, 255, 0.25);
  }
  20.6% {
    opacity: 0;
    text-shadow: none;
  }
  30% {
    opacity: 0;
    text-shadow: none;
  }
  30.1% {
    opacity: 1;
    text-shadow: 0 0 30px rgba(255, 255, 255, 0.45), 0 0 60px rgba(255, 255, 255, 0.25);
  }
  30.5% {
    opacity: 1;
    text-shadow: 0 0 30px rgba(255, 255, 255, 0.45), 0 0 60px rgba(255, 255, 255, 0.25);
  }
  30.6% {
    opacity: 0;
    text-shadow: none;
  }
  45% {
    opacity: 0;
    text-shadow: none;
  }
  45.1% {
    opacity: 1;
    text-shadow: 0 0 30px rgba(255, 255, 255, 0.45), 0 0 60px rgba(255, 255, 255, 0.25);
  }
  50% {
    opacity: 1;
    text-shadow: 0 0 30px rgba(255, 255, 255, 0.45), 0 0 60px rgba(255, 255, 255, 0.25);
  }
  55% {
    opacity: 1;
    text-shadow: 0 0 30px rgba(255, 255, 255, 0.45), 0 0 60px rgba(255, 255, 255, 0.25);
  }
  55.1% {
    opacity: 0;
    text-shadow: none;
  }
  57% {
    opacity: 0;
    text-shadow: none;
  }
  57.1% {
    opacity: 1;
    text-shadow: 0 0 30px rgba(255, 255, 255, 0.55), 0 0 60px rgba(255, 255, 255, 0.35);
  }
  60% {
    opacity: 1;
    text-shadow: 0 0 30px rgba(255, 255, 255, 0.55), 0 0 60px rgba(255, 255, 255, 0.35);
  }
  60.1% {
    opacity: 0;
    text-shadow: none;
  }
  65% {
    opacity: 0;
    text-shadow: none;
  }
  65.1% {
    opacity: 1;
    text-shadow: 0 0 30px rgba(255, 255, 255, 0.55), 0 0 60px rgba(255, 255, 255, 0.35), 0 0 100px rgba(255, 255, 255, 0.1);
  }
  75% {
    opacity: 1;
    text-shadow: 0 0 30px rgba(255, 255, 255, 0.55), 0 0 60px rgba(255, 255, 255, 0.35), 0 0 100px rgba(255, 255, 255, 0.1);
  }
  75.1% {
    opacity: 0;
    text-shadow: none;
  }
  77% {
    opacity: 0;
    text-shadow: none;
  }
  77.1% {
    opacity: 1;
    text-shadow: 0 0 30px rgba(255, 255, 255, 0.55), 0 0 60px rgba(255, 255, 255, 0.4), 0 0 110px rgba(255, 255, 255, 0.2), 0 0 100px rgba(255, 255, 255, 0.1);
  }
  85% {
    opacity: 1;
    text-shadow: 0 0 30px rgba(255, 255, 255, 0.55), 0 0 60px rgba(255, 255, 255, 0.4), 0 0 110px rgba(255, 255, 255, 0.2), 0 0 100px rgba(255, 255, 255, 0.1);
  }
  85.1% {
    opacity: 0;
    text-shadow: none;
  }
  86% {
    opacity: 0;
    text-shadow: none;
  }
  86.1% {
    opacity: 1;
    text-shadow: 0 0 30px rgba(255, 255, 255, 0.6), 0 0 60px rgba(255, 255, 255, 0.45), 0 0 110px rgba(255, 255, 255, 0.25), 0 0 100px rgba(255, 255, 255, 0.1);
  }
  100% {
    opacity: 1;
    text-shadow: 0 0 30px rgba(255, 255, 255, 0.6), 0 0 60px rgba(255, 255, 255, 0.45), 0 0 110px rgba(255, 255, 255, 0.25), 0 0 100px rgba(255, 255, 255, 0.1);
  }
}


/* ----------------------------------------------
 * Generated by Animista on 2018-11-14 15:0:51
 * w: http://animista.net, t: @cssanimista
 * ---------------------------------------------- */

/**
 * ----------------------------------------
 * animation shadow-pop-tr
 * ----------------------------------------
 */
@-webkit-keyframes shadow-pop-tr {
  0% {
    box-shadow: 0 0 #3e3e3e, 0 0 #3e3e3e, 0 0 #3e3e3e, 0 0 #3e3e3e, 0 0 #3e3e3e, 0 0 #3e3e3e, 0 0 #3e3e3e, 0 0 #3e3e3e;
    -webkit-transform: translateX(0) translateY(0);
            transform: translateX(0) translateY(0);
  }
  100% {
    box-shadow: 1px -1px #3e3e3e, 2px -2px #3e3e3e, 3px -3px #3e3e3e, 4px -4px #3e3e3e, 5px -5px #3e3e3e, 6px -6px #3e3e3e, 7px -7px #3e3e3e, 8px -8px #3e3e3e;
    -webkit-transform: translateX(-8px) translateY(8px);
            transform: translateX(-8px) translateY(8px);
  }
}
@keyframes shadow-pop-tr {
  0% {
    box-shadow: 0 0 #3e3e3e, 0 0 #3e3e3e, 0 0 #3e3e3e, 0 0 #3e3e3e, 0 0 #3e3e3e, 0 0 #3e3e3e, 0 0 #3e3e3e, 0 0 #3e3e3e;
    -webkit-transform: translateX(0) translateY(0);
            transform: translateX(0) translateY(0);
  }
  100% {
    box-shadow: 1px -1px #3e3e3e, 2px -2px #3e3e3e, 3px -3px #3e3e3e, 4px -4px #3e3e3e, 5px -5px #3e3e3e, 6px -6px #3e3e3e, 7px -7px #3e3e3e, 8px -8px #3e3e3e;
    -webkit-transform: translateX(-8px) translateY(8px);
            transform: translateX(-8px) translateY(8px);
  }
}



    </style>
  </defs>
  <title>visionXlogo</title>
  <g class="scale-out-center">
    <g>
      <g class="shadow-pop-tr">
        <rect class="cls-1" x="28.17" y="70.83" width="12.68" height="12.7"/>
        <rect class="cls-1" x="113.15" y="70.95" width="12.7" height="12.68"/>
        <rect class="cls-1" x="42.56" y="56.66" width="12.7" height="12.69"/>
        <rect class="cls-1" x="99.33" y="56.78" width="12.69" height="12.7"/>
        <rect class="cls-1" x="28.27" y="56.66" width="12.7" height="12.69"/>
        <rect class="cls-1" x="113.27" y="56.78" width="12.69" height="12.7"/>
        <rect class="cls-1" x="14.11" y="56.66" width="12.68" height="12.69"/>
        <rect class="cls-1" x="127.21" y="56.78" width="12.69" height="12.7"/>
        <rect class="cls-1" x="56.9" y="42.78" width="12.68" height="12.7"/>
        <rect class="cls-1" x="85.34" y="42.78" width="12.68" height="12.7"/>
        <rect class="cls-1" x="42.61" y="42.67" width="12.7" height="12.69"/>
        <rect class="cls-1" x="99.39" y="42.78" width="12.69" height="12.7"/>
        <rect class="cls-1" x="28.34" y="42.67" width="12.69" height="12.69"/>
        <rect class="cls-1" x="113.33" y="42.78" width="12.69" height="12.7"/>
        <rect class="cls-1" x="14.17" y="42.67" width="12.69" height="12.69"/>
        <rect class="cls-1" x="127.26" y="42.78" width="12.69" height="12.7"/>
        <rect class="cls-1" x="141.32" y="42.78" width="12.69" height="12.7"/>
        <rect class="cls-1" y="42.62" width="12.7" height="12.68"/>
        <rect class="cls-1" x="56.84" y="28.51" width="12.69" height="12.68"/>
        <rect class="cls-1" x="71.11" y="28.51" width="12.7" height="12.68"/>
        <rect class="cls-1" x="85.28" y="28.51" width="12.7" height="12.68"/>
        <rect class="cls-1" x="42.56" y="28.39" width="12.7" height="12.68"/>
        <rect class="cls-1" x="99.33" y="28.51" width="12.69" height="12.68"/>
        <rect class="cls-1" x="28.27" y="28.39" width="12.7" height="12.68"/>
        <rect class="cls-1" x="113.27" y="28.51" width="12.69" height="12.68"/>
        <rect class="cls-1" x="14.11" y="28.39" width="12.68" height="12.68"/>
        <rect class="cls-1" x="127.21" y="28.51" width="12.69" height="12.68"/>
        <rect class="cls-1" x="28.34" y="14.34" width="12.69" height="12.7"/>
        <rect class="cls-1" x="42.61" y="14.34" width="12.7" height="12.7"/>
        <rect class="cls-1" x="56.77" y="14.34" width="12.71" height="12.7"/>
        <rect class="cls-1" x="85.05" y="14.34" width="12.7" height="12.7"/>
        <rect class="cls-1" x="99.33" y="14.34" width="12.69" height="12.7"/>
        <rect class="cls-1" x="113.5" y="14.34" width="12.69" height="12.7"/>
        <rect class="cls-1" x="42.96" width="12.68" height="12.68"/>
        <rect class="cls-1" x="99.17" width="12.7" height="12.68"/>
      </g>
      <g class="shadow-pop-tr">
        <rect class="cls-1" x="71.07" y="42.95" width="12.68" height="12.69"/>
        <rect class="cls-1" x="56.78" y="56.63" width="12.7" height="12.69"/>
        <rect class="cls-1" x="71.07" y="56.63" width="12.68" height="12.69"/>
        <rect class="cls-1" x="85.23" y="56.63" width="12.7" height="12.69"/>
        <rect class="cls-1" x="56.78" y="70.91" width="12.7" height="12.7"/>
        <rect class="cls-1" x="71.07" y="70.91" width="12.68" height="12.7"/>
        <rect class="cls-1" x="85.23" y="70.91" width="12.7" height="12.7"/>
        <rect class="cls-1" x="42.5" y="71.02" width="12.7" height="12.69"/>
        <rect class="cls-1" x="99.28" y="70.91" width="12.69" height="12.7"/>
        <rect class="cls-1" x="56.9" y="85.19" width="12.7" height="12.69"/>
        <rect class="cls-1" x="71.17" y="85.19" width="12.7" height="12.69"/>
        <rect class="cls-1" x="85.34" y="85.19" width="12.7" height="12.69"/>
        <rect class="cls-1" x="42.62" y="85.3" width="12.7" height="12.7"/>
        <rect class="cls-1" x="99.39" y="85.19" width="12.69" height="12.69"/>
        <rect class="cls-1" x="57.01" y="99.35" width="12.69" height="12.7"/>
        <rect class="cls-1" x="71.29" y="99.35" width="12.7" height="12.7"/>
        <rect class="cls-1" x="85.46" y="99.35" width="12.7" height="12.7"/>
        <rect class="cls-1" x="71.35" y="113.34" width="12.69" height="12.7"/>
      </g>
    </g>
    <g class="shadow-pop-tr">
      <rect class="cls-2" x="28.45" y="99.48" width="12.7" height="12.69"/>
      <rect class="cls-2" x="113.45" y="99.35" width="12.69" height="12.7"/>
      <rect class="cls-2" x="14.28" y="99.48" width="12.69" height="12.69"/>
      <rect class="cls-2" x="127.39" y="99.35" width="12.69" height="12.7"/>
      <rect class="cls-2" x="42.79" y="113.47" width="12.7" height="12.69"/>
      <rect class="cls-2" x="99.57" y="113.34" width="12.7" height="12.7"/>
      <rect class="cls-2" x="28.51" y="113.47" width="12.69" height="12.69"/>
      <rect class="cls-2" x="113.51" y="113.34" width="12.69" height="12.7"/>
      <rect class="cls-2" x="14.35" y="113.47" width="12.69" height="12.69"/>
      <rect class="cls-2" x="127.44" y="113.34" width="12.7" height="12.7"/>
      <rect class="cls-2" x="141.49" y="113.34" width="12.7" height="12.7"/>
      <rect class="cls-2" x="0.18" y="113.52" width="12.7" height="12.7"/>
      <rect class="cls-2" x="57.01" y="127.62" width="12.69" height="12.71"/>
      <rect class="cls-2" x="85.46" y="127.62" width="12.7" height="12.71"/>
      <rect class="cls-2" x="42.73" y="127.73" width="12.7" height="12.7"/>
      <rect class="cls-2" x="99.51" y="127.62" width="12.69" height="12.71"/>
      <rect class="cls-2" x="28.45" y="127.73" width="12.7" height="12.7"/>
      <rect class="cls-2" x="113.45" y="127.62" width="12.69" height="12.71"/>
      <rect class="cls-2" x="14.28" y="127.73" width="12.69" height="12.7"/>
      <rect class="cls-2" x="127.39" y="127.62" width="12.69" height="12.71"/>
      <rect class="cls-2" x="28.51" y="141.8" width="12.69" height="12.69"/>
      <rect class="cls-2" x="42.79" y="141.8" width="12.7" height="12.69"/>
      <rect class="cls-2" x="56.96" y="141.8" width="12.7" height="12.69"/>
      <rect class="cls-2" x="85.23" y="141.8" width="12.7" height="12.69"/>
      <rect class="cls-2" x="99.51" y="141.8" width="12.69" height="12.69"/>
      <rect class="cls-2" x="113.68" y="141.8" width="12.69" height="12.69"/>
      <rect class="cls-2" x="43.13" y="156.13" width="12.69" height="12.7"/>
      <rect class="cls-2" x="99.34" y="156.13" width="12.68" height="12.7"/>
    </g>
    <g class="text-flicker-in-glow">
      <path class="cls-1" d="M282.92,458.11H285L291.55,476l6.64-17.92h2l-7.75,20.42h-1.91Z" transform="translate(-282.83 -267.25)"/>
      <path class="cls-1" d="M309.64,458.11h1.9v20.42h-1.9Z" transform="translate(-282.83 -267.25)"/>
      <path class="cls-1" d="M324,474.74a5.15,5.15,0,0,0,4.66,2.58c2.57,0,4.59-1.57,4.59-4,0-5.71-10.53-2.36-10.53-10.12,0-3.63,3.12-5.6,6.56-5.6a6.64,6.64,0,0,1,5.55,2.57l-1.64,1.19a4.54,4.54,0,0,0-4-2c-2.46,0-4.59,1.26-4.59,3.86,0,6.14,10.52,2.44,10.52,10.12,0,3.7-3,5.74-6.34,5.74a7.66,7.66,0,0,1-6.63-3.09Z" transform="translate(-282.83 -267.25)"/>
      <path class="cls-1" d="M345.88,458.11h1.91v20.42h-1.91Z" transform="translate(-282.83 -267.25)"/>
      <path class="cls-1" d="M368.14,457.59c6.23,0,10.55,4.51,10.55,10.73s-4.32,10.73-10.55,10.73-10.56-4.5-10.56-10.73S361.91,457.59,368.14,457.59Zm0,19.73c5.33,0,8.65-3.92,8.65-9s-3.32-9-8.65-9-8.66,3.91-8.66,9S362.8,477.32,368.14,477.32Z" transform="translate(-282.83 -267.25)"/>
      <path class="cls-1" d="M387.45,458.11h2.44L402.33,476h.06V458.11h1.89v20.42h-2.45L389.4,460.65h-.06v17.88h-1.89Z" transform="translate(-282.83 -267.25)"/>
      <path class="cls-1" d="M423.51,467.86l-6.75-9.75h5.65l4.35,7.15,4.19-7.15h5.44l-6.6,9.66,7.38,10.76h-5.65l-5-8.22-4.84,8.22h-5.34Z" transform="translate(-282.83 -267.25)"/>
    </g>
  </g>
</svg>
